# xmcd
#
# Track frame offsets:
#	150
#	6472
#	23949
#	31269
#	47326
#	65658
#	86337
#	104464
#	110766
#	128898
#	148454
#	152036
#	170429
#	189747
#	209199
#	229761
#	251583
#	271431
#
# Disc length: 3879 seconds
# Revision: 0
# Processed by: cddbd v1.5.2PL0 Copyright (c) Steve Scherf et al.
# Submitted via: dBpowerAMP V12.0
#
DISCID=0d0f2512
DTITLE=Lamorris Williams - Issues
DYEAR=1999
DGENRE=R&B
TTITLE0=Interruption (intro)
TTITLE1=Non Stop
TTITLE2=Issues
TTITLE3=Where U been Hiddin
TTITLE4=Running In Circle
TTITLE5=Senorita
TTITLE6=What's Wrong
TTITLE7=Missin You (interlude0
TTITLE8=Life of Brandy featuring Young Bleed
TTITLE9=What You Say
TTITLE10=Do Me(interlude)
TTITLE11=Do Me
TTITLE12=Oh Sheila
TTITLE13=Nothing To Good 4 U feat. CLoc
TTITLE14=Let's Play School
TTITLE15=Pretty School
TTITLE16=Up In My Room
TTITLE17=Non Stop (remix) feat. Boo the boss playa
EXTD=
EXTT0=
EXTT1=
EXTT2=
EXTT3=
EXTT4=
EXTT5=
EXTT6=
EXTT7=
EXTT8=
EXTT9=
EXTT10=
EXTT11=
EXTT12=
EXTT13=
EXTT14=
EXTT15=
EXTT16=
EXTT17=
PLAYORDER=
